<?xml version="1.0" encoding="UTF-8"?>
<svg version="1.1" xmlns="http://www.w3.org/2000/svg" xmlns:xlink="http://www.w3.org/1999/xlink" x="0px" y="0px" viewBox="0 0 1200 1200" xml:space="preserve">
 <path d="m1049.1 598.36c-6.4531-22.773-14.414-28.168-30.844-32.234-3.0508-0.82812-9.4023-1.8672-18.223-2.9922 15.961-46.867 106.79-313.55 111.63-327.59 5.2031-15.504 5.4648-21.801 5.4648-22.91 0-14.223-16.543-21.359-25.797-21.359-8.7266 0-15.504 4.7656-19.102 13.418-2.5195 6.0703-117.35 311.03-133.01 352.62-56.734-4.2031-153.59-9.1406-299.92-9.7344-0.92188-46.32-6.9648-350.5-6.9648-360.14 0-12.797-10.449-22.082-24.836-22.082-13.738 0-23.379 8.3203-23.992 20.77-0.36719 9.7773-1.918 314.57-2.1406 361.34-146.04 0.59766-242.79 5.4727-299.48 9.6211-48.453-128.48-137.94-366.03-140.04-372.55-2.6172-8.2148-6.5742-15.816-17.719-15.816-8.4805 0-14.215 3.3477-20.848 7.7305-8.9922 5.9922-9.0938 17.238-6.1367 25.918 1.8516 5.0195 106.39 309.71 123.76 360.35-11.531 1.3789-18.82 2.6133-22.02 3.3867-16.559 4.1016-24.52 9.4922-30.973 32.266-3.3867 11.965-76.422 293.68-76.422 318.55 0 19.191 5.4531 34.5 15.773 44.266 9.9844 9.4453 24.27 13.695 42.418 12.723 42.254-2.4648 203.59-8.875 442.66-9.2188l-0.21094 45.23c0 5.0742 4.2891 9.3594 9.3633 9.3594h14.039c5.0977 0 9.2383-4.1953 9.2383-9.3867l-0.21094-45.199c239.18 0.33984 400.53 6.7539 442.8 9.2188 1.7227 0.10156 3.4023 0.14453 5.0547 0.14453 15.758 0 28.301-4.3242 37.336-12.871 10.324-9.7656 15.777-25.074 15.777-44.262-0.003906-25.008-73.047-306.6-76.434-318.56zm34.215-389.06c2.2148-5.3359 5.4492-6.0234 8.0156-6.0234 3.9805 0 13.797 3.7266 13.797 9.2539 0 0.050781-0.23047 5.4453-4.8281 19.152-5.0742 14.746-105.37 309.23-113.43 332.9-10.484-1.1562-25.902-2.543-36.289-3.3906 46.008-122.18 130.66-346.88 132.74-351.89zm-475.82-31.941c4.7695 0 12.836 2.1211 12.836 10.082 0 10.105 6.2891 326.32 7.0234 363.09-11.805-0.042968-26.09-0.070312-34.008-0.085937 0.15625-33.305 1.7969-354.71 2.1445-363.79 0.42578-8.6328 9.2969-9.2969 12.004-9.2969zm-499.04 20.988c-0.50391-1.4883-2.8125-9.0469 1.4727-11.898 6.1055-4.0391 9.4336-5.7266 14.207-5.7266 2.4375 0 3.9102 0 6.2812 7.457 2.5352 7.9375 123.75 329.43 140.11 372.79-9.7266 0.78516-26.789 2.2109-36.41 3.2344-9.875-28.777-123.83-360.96-125.66-365.86zm71.012 403.29c5.1641-18.215 9.6797-20.762 22.285-23.883 3.2891-0.79688 12.562-2.3086 27.91-3.9492 1.8164-0.19531 3.4453-1.2031 4.4219-2.7422 0.16406-0.26172 0.17969-0.57422 0.30469-0.85156 10.113-1.0859 29.684-2.6992 38.859-3.4336 1.168 1.5977 2.8477 2.7188 5.0625 2.6094 56.555-4.2617 156.08-9.4414 309.05-9.9453 2.1875-0.007812 4.0156-1.2422 5.0586-2.9922 7.8633 0.011719 23.441 0.042969 35.902 0.089843 1.0391 1.7734 2.8867 3.0117 5.0859 3.0195 153.21 0.49609 252.82 5.7461 309.4 10.059 2.0234 0.16797 3.8203-0.99219 5.0469-2.625 10.344 0.81641 27.609 2.3594 38.77 3.5977 0.11719 0.26562 0.12891 0.5625 0.28906 0.8125 0.97266 1.5352 2.582 2.5469 4.3828 2.7539 17.391 2.0156 22.645 3.2305 23.965 3.5859 12.633 3.1289 17.148 5.6719 22.312 23.891 6.4023 22.621 75.973 293.67 75.973 315.29 0 2.2969-0.125 4.793-0.35547 7.3555-3.2539 4.5664-9.5547 9.4414-22.113 9.4414-1.6758-0.046875-5.7109-0.30859-12.18-0.73828-124.95-8.1992-277.89-12.449-454.48-12.68l-0.59375-173.42c0-5.0977-4.1406-9.2461-9.2383-9.2461h-12.117c-5.1641 0-9.3633 4.1484-9.3633 9.2305l-0.58984 173.44c-174.98 0.30078-326.61 4.5508-450.59 12.68-6.4922 0.42188-10.547 0.69141-12.211 0.73828-15.156 0.37891-22.34-4.8008-25.863-9.5664-0.22656-2.5195-0.34766-4.9727-0.34766-7.2305-0.007813-21.508 69.555-292.64 75.961-315.29zm-30.457 360.3c-14.754 0.82812-25.992-2.3711-33.484-9.4609-5.4141-5.1211-8.4453-11.941-10.133-18.867 5.0078 3.4492 12.156 6.1367 22.863 6.1367 0.52734 0 1.0664-0.007813 1.6094-0.015626 1.7109-0.050781 5.8359-0.31641 12.445-0.75 123.84-8.1211 275.33-12.367 450.18-12.668l-0.089844 26.383c-239.41 0.34375-401.05 6.7695-443.39 9.2422zm455.14 45.344 0.23047-48.57v-0.003906-0.003906l0.70703-209.06h6.7422l0.70703 209.06v0.003906 0.003906l0.23047 48.57zm497.37-54.805c-7.4922 7.0898-18.785 10.27-33.469 9.4609-42.352-2.4727-204.01-8.8984-443.52-9.2461l-0.089844-26.387c176.45 0.23047 329.25 4.4766 454.06 12.668 6.5859 0.43359 10.699 0.70312 12.484 0.75 9.4688 0 15.938-2.5586 20.605-5.8633-1.6992 6.8398-4.7266 13.555-10.07 18.617z" stroke="#000000" stroke-linecap="butt" stroke-linejoin="round" stroke-width="10"/>
</svg>