<?xml version="1.0" encoding="UTF-8"?>
<svg version="1.1" xmlns="http://www.w3.org/2000/svg" xmlns:xlink="http://www.w3.org/1999/xlink" x="0px" y="0px" viewBox="0 0 1200 1200" xml:space="preserve">
 <path d="m600 829.92c-13.879-0.054687-27.547 3.4141-39.719 10.078-23.996 13.02-40.09 36.973-43.07 64.113-2.9766 27.137 7.5352 54.012 28.133 71.926 20.602 17.918 48.676 24.598 75.137 17.883 26.461-6.7148 47.953-25.977 57.516-51.547 9.5664-25.57 5.9883-54.203-9.5703-76.637-15.559-22.434-41.125-35.816-68.426-35.816zm-152.16-296.88c-78.727 16.898-151.52 54.516-210.84 108.96l141 141.48c29.664-17.555 61.121-31.875 93.84-42.719-2.957-9.1641-4.9297-18.621-5.8789-28.203zm-417.84-110.52 136.08 141.48c80.988-62.414 173.04-108.95 271.32-137.16-3.1055-45.426 12.918-90.078 44.195-123.16 31.281-33.086 74.965-51.59 120.49-51.035 45.527 0.55469 88.75 20.117 119.21 53.953 30.465 33.84 45.395 78.871 41.184 124.21 94.738 29.738 183.15 76.773 260.76 138.72l146.76-138.36c-386.52-332.76-861.96-270.36-1140-8.6406zm570-121.92c-32.555 0.003907-63.586 13.785-85.418 37.93-21.836 24.145-32.438 56.398-29.184 88.789l9.7188 96.84 18.602 183.84c0.73047 7.0938 2.3438 14.066 4.8008 20.762 3.7773 10.469 9.5195 20.121 16.922 28.438l0.83984 0.96094c15.203 16.434 36.168 26.352 58.516 27.684 22.344 1.3359 44.344-6.0195 61.391-20.527 17.051-14.508 27.832-35.043 30.094-57.316l18-177.96 10.32-102.48c3.3281-32.43-7.2422-64.75-29.086-88.949s-52.914-38.012-85.516-38.008zm134.04 411.96c-1.2031 11.402-3.8242 22.609-7.8008 33.363 26.906 10.035 52.918 22.32 77.762 36.719l144-144c-58.523-45.316-125.39-78.672-196.8-98.16z"/>
</svg>
