<?xml version="1.0" encoding="UTF-8"?>
<svg version="1.1" xmlns="http://www.w3.org/2000/svg" xmlns:xlink="http://www.w3.org/1999/xlink" x="0px" y="0px" viewBox="0 0 1200 1200" xml:space="preserve">
 <g>
  <path d="m1074.1 480.01h-150.24v-254.05c0-43.008-34.992-78-78-78h-719.9c-43.008 0-78 34.992-78 78v477.78c0 43.008 34.992 78 78 78h262.48l-43.727 123.43c-7.2344 20.41-5.1367 40.945 5.7461 56.34 10.871 15.395 29.531 24.227 51.191 24.227h168.54c21.648 0 40.309-8.832 51.191-24.227 10.883-15.395 12.973-35.941 5.7461-56.34l-43.727-123.43h206.1v192.31c0 43.008 34.992 78 78 78h206.61c43.008 0 78-34.992 78-78v-416.03c0-43.008-34.992-78-78-78zm-480.93 437.18c3.3242 9.3828 2.8906 17.746-1.1992 23.543-4.1055 5.8086-11.844 9-21.793 9h-168.54c-9.9492 0-17.688-3.1914-21.793-9-4.0938-5.7969-4.5234-14.16-1.1992-23.543l47.988-135.46h118.56l47.988 135.46zm196.32-171.46h-663.54c-23.16 0-42-18.84-42-42v-30h705.53v72zm0-187.73v79.727h-705.54v-411.78c0-23.16 18.84-42 42-42h719.9c23.16 0 42 18.84 42 42v254.05h-20.363c-43.008 0-78 34.992-78 78zm326.61 416.03c0 23.16-18.84 42-42 42h-206.61c-23.16 0-42-18.84-42-42v-416.03c0-23.16 18.84-42 42-42h206.61c23.16 0 42 18.84 42 42z"/>
  <path d="m1010.8 568.48h-80.113c-9.9492 0-18 8.0508-18 18 0 9.9492 8.0508 18 18 18h80.113c9.9492 0 18-8.0508 18-18 0-9.9492-8.0508-18-18-18z"/>
 </g>
</svg>
