<?xml version="1.0" encoding="utf-8"?>
<svg version="1.1" xmlns="http://www.w3.org/2000/svg" xmlns:xlink="http://www.w3.org/1999/xlink" x="0px" y="0px" viewBox="0 0 1200 1200" xml:space="preserve">
 <g>
  <path d="m969.23 969.23h-738.46v-738.46h738.46zm-692.31-46.152h646.15l0.003906-646.16h-646.16z"/>
  <path d="m600 842.31h-161.54c-38.176 0-69.23-31.055-69.23-69.23v-161.54h46.152v161.54c0 12.723 10.355 23.078 23.078 23.078h161.54z"/>
  <path d="m830.77 611.54h-46.152v-161.54c0-12.723-10.355-23.078-23.078-23.078h-168.31v-46.152h168.31c38.176 0 69.23 31.055 69.23 69.23z"/>
  <path d="m969.23 288.46h161.54v46.152h-161.54z"/>
  <path d="m969.23 403.85h161.54v46.152h-161.54z"/>
  <path d="m969.23 519.23h161.54v46.152h-161.54z"/>
  <path d="m969.23 634.62h161.54v46.152h-161.54z"/>
  <path d="m969.23 750h161.54v46.152h-161.54z"/>
  <path d="m969.23 865.38h161.54v46.152h-161.54z"/>
  <path d="m69.23 288.46h161.54v46.152h-161.54z"/>
  <path d="m69.23 403.85h161.54v46.152h-161.54z"/>
  <path d="m69.23 519.23h161.54v46.152h-161.54z"/>
  <path d="m69.23 634.62h161.54v46.152h-161.54z"/>
  <path d="m69.23 750h161.54v46.152h-161.54z"/>
  <path d="m69.23 865.38h161.54v46.152h-161.54z"/>
  <path d="m865.38 69.23h46.152v161.54h-46.152z"/>
  <path d="m750 69.23h46.152v161.54h-46.152z"/>
  <path d="m634.62 69.23h46.152v161.54h-46.152z"/>
  <path d="m519.23 69.23h46.152v161.54h-46.152z"/>
  <path d="m403.85 69.23h46.152v161.54h-46.152z"/>
  <path d="m288.46 69.23h46.152v161.54h-46.152z"/>
  <path d="m865.38 969.23h46.152v161.54h-46.152z"/>
  <path d="m750 969.23h46.152v161.54h-46.152z"/>
  <path d="m634.62 969.23h46.152v161.54h-46.152z"/>
  <path d="m519.23 969.23h46.152v161.54h-46.152z"/>
  <path d="m403.85 969.23h46.152v161.54h-46.152z"/>
  <path d="m288.46 969.23h46.152v161.54h-46.152z"/>
  <path d="m306.76 339.39 32.633-32.633 33.004 33.004-32.633 32.633z"/>
  <path d="m827.61 860.25 32.633-32.633 32.992 32.992-32.633 32.633z"/>
 </g>
</svg>
