<?xml version="1.0" encoding="UTF-8"?>
<svg version="1.1" xmlns="http://www.w3.org/2000/svg" xmlns:xlink="http://www.w3.org/1999/xlink" x="0px" y="0px" viewBox="0 0 1200 1200" xml:space="preserve">
 <g>
  <path d="m649.48 281.26c0 27.328-22.156 49.484-49.484 49.484s-49.484-22.156-49.484-49.484c0-27.332 22.156-49.484 49.484-49.484s49.484 22.152 49.484 49.484z"/>
  <path d="m600 59.711c120.04 0 217.34 97.305 217.34 217.34 0 95.367-43.645 179-88.961 237.62-22.82 29.52-46.754 53.605-67.309 70.605-10.203 8.4375-20.043 15.52-28.902 20.695v50.117h278.79c45.094 0 81.652 36.555 81.652 81.652v42.766h18.395c45.094 0 81.648 36.555 81.648 81.648v98.973c0 45.094-36.555 81.648-81.648 81.648h-98.969c-45.094 0-81.652-36.555-81.652-81.648v-98.973c0-45.094 36.559-81.648 81.652-81.648h16.242v-42.766c0-9.5664-7.7539-17.32-17.32-17.32h-278.79v60.086h17.32c45.094 0 81.652 36.555 81.652 81.648v98.973c0 45.094-36.559 81.648-81.652 81.648h-98.969c-45.094 0-81.648-36.555-81.648-81.648v-98.973c0-45.094 36.555-81.648 81.648-81.648h17.32v-60.086h-278.8c-9.5664 0-17.32 7.7539-17.32 17.32v42.766h16.234c45.094 0 81.648 36.555 81.648 81.648v98.973c0 45.094-36.555 81.648-81.648 81.648h-98.969c-45.094 0-81.652-36.555-81.652-81.648v-98.973c0-45.094 36.559-81.648 81.652-81.648h18.406v-42.766c0-45.098 36.555-81.652 81.648-81.652h278.8v-50.176c-0.011719-0.007812 0.011718 0.007813 0 0-8.875-5.2266-18.777-12.41-29-20.93-20.539-17.117-44.445-41.336-67.25-70.93-45.25-58.734-88.926-142.36-88.926-237 0-120.04 97.305-217.34 217.34-217.34zm153.01 217.34c0-84.504-68.504-153.01-153.01-153.01-84.504 0-153.01 68.504-153.01 153.01 0 75.195 35.121 145.25 75.559 197.74 20.043 26.016 40.707 46.797 57.477 60.773 8.2109 6.8438 15.039 11.684 20.031 14.664 4.9844-2.9492 11.809-7.7422 20.012-14.527 16.75-13.852 37.391-34.477 57.414-60.379 40.375-52.223 75.527-122.27 75.527-198.27zm-202.49 567.79c-9.5664 0-17.32 7.7539-17.32 17.316v98.973c0 9.5625 7.7539 17.316 17.32 17.316h98.969c9.5664 0 17.32-7.7539 17.32-17.316v-98.973c0-9.5625-7.7539-17.316-17.32-17.316zm-378.86 17.316c0-9.5625 7.7539-17.316 17.32-17.316h98.969c9.5625 0 17.32 7.7539 17.32 17.316v98.973c0 9.5625-7.7578 17.316-17.32 17.316h-98.969c-9.5664 0-17.32-7.7539-17.32-17.316zm740.38-17.316c-9.5664 0-17.32 7.7539-17.32 17.316v98.973c0 9.5625 7.7539 17.316 17.32 17.316h98.969c9.5625 0 17.316-7.7539 17.316-17.316v-98.973c0-9.5625-7.7539-17.316-17.316-17.316z" fill-rule="evenodd"/>
 </g>
</svg>
