<?xml version="1.0" encoding="UTF-8"?>
<svg version="1.1" xmlns="http://www.w3.org/2000/svg" xmlns:xlink="http://www.w3.org/1999/xlink" x="0px" y="0px" viewBox="0 0 1200 1200" xml:space="preserve">
 <g>
  <path d="m826.64 540.94v82.383 131.37 30.352c17.578-17.578 35.156-35.156 52.734-52.734h-55.781-133.24-161.13-139.92c-22.617 0-45.234-0.46875-67.852 0h-0.9375c17.578 17.578 35.156 35.156 52.734 52.734v-92.461-134.3c0-18.281 0.11719-36.445 2.4609-54.727-0.58594 4.6875-1.2891 9.375-1.875 14.062 3.3984-24.609 9.8438-48.516 19.453-71.367-1.7578 4.2188-3.5156 8.4375-5.2734 12.539 9.4922-22.266 21.797-43.242 36.562-62.344-2.6953 3.5156-5.5078 7.1484-8.2031 10.664 14.531-18.516 31.172-35.273 49.688-49.688-3.5156 2.6953-7.1484 5.5078-10.664 8.2031 19.219-14.766 40.078-27.07 62.344-36.562-4.2188 1.7578-8.4375 3.5156-12.539 5.2734 22.852-9.6094 46.875-16.172 71.367-19.453-4.6875 0.58594-9.375 1.2891-14.062 1.875 24.844-3.2812 49.922-3.2812 74.766 0-4.6875-0.58594-9.375-1.2891-14.062-1.875 24.609 3.3984 48.516 9.8438 71.367 19.453-4.2188-1.7578-8.4375-3.5156-12.539-5.2734 22.266 9.4922 43.242 21.797 62.344 36.562-3.5156-2.6953-7.1484-5.5078-10.664-8.2031 18.516 14.531 35.273 31.172 49.688 49.688-2.6953-3.5156-5.5078-7.1484-8.2031-10.664 14.766 19.219 27.07 40.078 36.562 62.344-1.7578-4.2188-3.5156-8.4375-5.2734-12.539 9.6094 22.852 16.172 46.875 19.453 71.367-0.58594-4.6875-1.2891-9.375-1.875-14.062 1.7578 12.422 2.5781 24.961 2.5781 37.383 0 13.594 5.8594 27.656 15.469 37.266 9.1406 9.1406 24.141 16.055 37.266 15.469 13.594-0.58594 27.773-5.0391 37.266-15.469 9.4922-10.312 15.469-22.969 15.469-37.266-0.11719-54.609-13.711-108.16-39.141-156.45-24.375-46.406-60.469-84.961-102.66-115.55-83.32-60.352-198.52-76.523-295.66-43.008-49.688 17.227-95.508 45.117-132.3 82.852-36.797 37.734-64.102 84.023-79.922 134.3-18.047 57.422-14.648 117.66-14.648 176.84v161.95 3.1641c0 28.477 24.141 52.734 52.734 52.734h55.781 133.24 161.13 139.92c22.617 0 45.234 0.35156 67.852 0h0.9375c28.477 0 52.734-24.141 52.734-52.734v-82.383-131.37-30.352c0-13.477-5.8594-27.773-15.469-37.266-9.1406-9.1406-24.141-16.055-37.266-15.469-13.594 0.58594-27.773 5.0391-37.266 15.469-9.4922 10.312-15.469 22.969-15.469 37.266z"/>
  <path d="m881.6 795.23v106.52c0 5.3906 0.23438 10.898-0.11719 16.289 0.58594-4.6875 1.2891-9.375 1.875-14.062-0.11719 0.9375-0.46875 1.875-0.82031 2.8125 1.7578-4.2188 3.5156-8.4375 5.2734-12.539-0.35156 0.82031-0.9375 1.6406-1.5234 2.3438 2.6953-3.5156 5.5078-7.1484 8.2031-10.664-0.35156 0.35156-0.70313 0.70312-1.0547 1.0547 3.5156-2.6953 7.1484-5.5078 10.664-8.2031-0.70312 0.58594-1.5234 1.1719-2.3438 1.5234 4.2188-1.7578 8.4375-3.5156 12.539-5.2734-0.9375 0.46875-1.875 0.70313-2.8125 0.82031 4.6875-0.58594 9.375-1.2891 14.062-1.875-6.2109 0.46875-12.422 0.11719-18.633 0.11719h-47.344-154.8-187.27-162.77c-26.016 0-52.031 0.58594-78.047 0-0.82031 0-1.6406 0-2.4609-0.11719 4.6875 0.58594 9.375 1.2891 14.062 1.875-0.9375-0.11719-1.875-0.46875-2.8125-0.82031 4.2188 1.7578 8.4375 3.5156 12.539 5.2734-0.82031-0.35156-1.6406-0.9375-2.3438-1.5234 3.5156 2.6953 7.1484 5.5078 10.664 8.2031-0.35156-0.35156-0.70312-0.70313-1.0547-1.0547 2.6953 3.5156 5.5078 7.1484 8.2031 10.664-0.58594-0.70312-1.1719-1.5234-1.5234-2.3438 1.7578 4.2188 3.5156 8.4375 5.2734 12.539-0.46875-0.9375-0.70312-1.875-0.82031-2.8125 0.58594 4.6875 1.2891 9.375 1.875 14.062-1.0547-13.945-0.11719-28.125-0.11719-42.07v-65.859c0-5.3906-0.23437-10.898 0.11719-16.289-0.58594 4.6875-1.2891 9.375-1.875 14.062 0.11719-0.9375 0.46875-1.875 0.82031-2.8125-1.7578 4.2188-3.5156 8.4375-5.2734 12.539 0.35156-0.82031 0.9375-1.6406 1.5234-2.3438-2.6953 3.5156-5.5078 7.1484-8.2031 10.664 0.35156-0.35156 0.70312-0.70312 1.0547-1.0547-3.5156 2.6953-7.1484 5.5078-10.664 8.2031 0.70313-0.58594 1.5234-1.1719 2.3438-1.5234-4.2188 1.7578-8.4375 3.5156-12.539 5.2734 0.9375-0.46875 1.875-0.70313 2.8125-0.82031-4.6875 0.58594-9.375 1.2891-14.062 1.875 6.2109-0.46875 12.422-0.11719 18.633-0.11719h47.344 154.8 187.27 162.77c26.016 0 52.031-0.58594 78.047 0 0.82031 0 1.6406 0 2.4609 0.11719-4.6875-0.58594-9.375-1.2891-14.062-1.875 0.9375 0.11719 1.875 0.46875 2.8125 0.82031-4.2188-1.7578-8.4375-3.5156-12.539-5.2734 0.82031 0.35156 1.6406 0.9375 2.3438 1.5234-3.5156-2.6953-7.1484-5.5078-10.664-8.2031 0.35156 0.35156 0.70312 0.70313 1.0547 1.0547-2.6953-3.5156-5.5078-7.1484-8.2031-10.664 0.58594 0.70312 1.1719 1.5234 1.5234 2.3438-1.7578-4.2188-3.5156-8.4375-5.2734-12.539 0.46875 0.9375 0.70313 1.875 0.82031 2.8125-0.58594-4.6875-1.2891-9.375-1.875-14.062 0 0.46875 0.11719 0.9375 0.11719 1.4062 1.0547 14.18 5.1562 27.07 15.469 37.266 9.1406 9.1406 24.141 16.055 37.266 15.469 13.594-0.58594 27.773-5.0391 37.266-15.469 9.0234-9.8438 16.406-23.438 15.469-37.266-1.7578-23.672-11.484-42.07-31.992-54.844-8.9062-5.5078-20.859-7.9688-31.055-8.2031h-2.8125-15.117-62.461-204.96-222.66-133.24-6.7969c-23.32 0.46875-42.656 12.305-54.844 31.992-5.8594 9.375-7.8516 21.094-8.2031 31.875-0.11719 4.3359 0 8.6719 0 13.008v99.492c0 3.0469 0 6.2109 0.11719 9.2578 1.5234 34.219 28.711 60.82 63.047 61.406h9.1406 52.148 195.12 226.29 150.7 12.773 1.7578c23.32-0.46875 42.656-12.305 54.844-31.992 5.8594-9.375 7.8516-21.094 8.2031-31.875 0.70313-30.938 0-61.992 0-92.93v-27.422c0-13.477-5.8594-27.773-15.469-37.266-9.1406-9.1406-24.141-16.055-37.266-15.469-13.594 0.58594-27.773 5.0391-37.266 15.469-9.4922 10.547-15.469 23.203-15.469 37.5z"/>
  <path d="m830.04 1063.8v-119.65-16.875c0-13.477-5.8594-27.773-15.469-37.266-9.1406-9.1406-24.141-16.055-37.266-15.469-13.594 0.58594-27.773 5.0391-37.266 15.469-9.4922 10.312-15.469 22.969-15.469 37.266v119.65 16.875c0 13.477 5.8594 27.773 15.469 37.266 9.1406 9.1406 24.141 16.055 37.266 15.469 13.594-0.58594 27.773-5.0391 37.266-15.469 9.4922-10.312 15.469-22.969 15.469-37.266z"/>
  <path d="m475.43 1139.1v-71.484-114.02-26.367c0-13.477-5.8594-27.773-15.469-37.266-9.1406-9.1406-24.141-16.055-37.266-15.469-13.594 0.58594-27.773 5.0391-37.266 15.469-9.4922 10.312-15.469 22.969-15.469 37.266v71.484 114.02 26.367c0 13.477 5.8594 27.773 15.469 37.266 9.1406 9.1406 24.141 16.055 37.266 15.469 13.594-0.58594 27.773-5.0391 37.266-15.469 9.4922-10.312 15.469-22.969 15.469-37.266z"/>
  <path d="m547.27 60.938v67.969c0 13.477 5.8594 27.773 15.469 37.266 9.1406 9.1406 24.141 16.055 37.266 15.469 13.594-0.58594 27.773-5.0391 37.266-15.469 9.4922-10.312 15.469-22.969 15.469-37.266v-67.969c0-13.477-5.8594-27.773-15.469-37.266-9.1406-9.1406-24.141-16.055-37.266-15.469-13.594 0.58594-27.773 5.0391-37.266 15.469-9.4922 10.312-15.469 22.969-15.469 37.266z"/>
  <path d="m265.78 210.47 49.57 49.57c9.6094 9.6094 23.789 15.469 37.266 15.469 12.891 0 28.359-5.7422 37.266-15.469 9.2578-10.078 16.055-23.203 15.469-37.266-0.58594-13.945-5.3906-27.188-15.469-37.266l-49.57-49.57c-9.6094-9.6094-23.789-15.469-37.266-15.469-12.891 0-28.359 5.7422-37.266 15.469-9.2578 10.078-16.055 23.203-15.469 37.266 0.70312 13.945 5.3906 27.188 15.469 37.266z"/>
  <path d="m860.04 135.82c-16.523 16.523-33.047 33.047-49.57 49.57-9.6094 9.6094-15.469 23.789-15.469 37.266 0 12.891 5.7422 28.359 15.469 37.266 10.078 9.2578 23.203 16.055 37.266 15.469 13.945-0.58594 27.188-5.3906 37.266-15.469 16.523-16.523 33.047-33.047 49.57-49.57 9.6094-9.6094 15.469-23.789 15.469-37.266 0-12.891-5.7422-28.359-15.469-37.266-10.078-9.2578-23.203-16.055-37.266-15.469-14.062 0.70313-27.188 5.3906-37.266 15.469z"/>
  <path d="m537.42 536.48c0-5.3906 0.35156-10.781 1.1719-16.172-0.58594 4.6875-1.2891 9.375-1.875 14.062 1.4062-9.8438 4.1016-19.453 7.9688-28.711-1.7578 4.2188-3.5156 8.4375-5.2734 12.539 3.8672-9.0234 8.7891-17.344 14.648-25.195-2.6953 3.5156-5.5078 7.1484-8.2031 10.664 6.3281-8.0859 13.477-15.234 21.562-21.562-3.5156 2.6953-7.1484 5.5078-10.664 8.2031 7.8516-5.8594 16.172-10.781 25.195-14.648-4.2188 1.7578-8.4375 3.5156-12.539 5.2734 9.2578-3.8672 18.867-6.4453 28.711-7.9688-4.6875 0.58594-9.375 1.2891-14.062 1.875 5.3906-0.70312 10.781-1.1719 16.172-1.1719 13.477 0 27.773-5.8594 37.266-15.469 9.1406-9.1406 16.055-24.141 15.469-37.266-0.58594-13.594-5.0391-27.773-15.469-37.266-10.312-9.4922-22.969-15.469-37.266-15.469-43.945 0-87.07 17.812-118.36 48.75-31.758 31.289-49.453 74.883-49.805 119.41-0.11719 13.477 5.9766 27.773 15.469 37.266 9.1406 9.1406 24.141 16.055 37.266 15.469 28.594-1.1719 52.383-22.969 52.617-52.617z"/>
 </g>
</svg>
