<?xml version="1.0" encoding="UTF-8"?>
<svg version="1.1" xmlns="http://www.w3.org/2000/svg" xmlns:xlink="http://www.w3.org/1999/xlink" x="0px" y="0px" viewBox="0 0 1200 1200" xml:space="preserve">
 <g>
  <path d="m180 636h120c13.199 0 24-10.801 24-24v-192c0-13.199-10.801-24-24-24h-120c-13.199 0-24 10.801-24 24v192c0 13.199 10.801 24 24 24zm24-192h72v144h-72z"/>
  <path d="m420 636h120c13.199 0 24-10.801 24-24v-192c0-13.199-10.801-24-24-24h-120c-13.199 0-24 10.801-24 24v192c0 13.199 10.801 24 24 24zm24-192h72v144h-72z"/>
  <path d="m660 636h120c13.199 0 24-10.801 24-24v-192c0-13.199-10.801-24-24-24h-120c-13.199 0-24 10.801-24 24v192c0 13.199 10.801 24 24 24zm24-192h72v144h-72z"/>
  <path d="m900 636h120c13.199 0 24-10.801 24-24v-192c0-13.199-10.801-24-24-24h-120c-13.199 0-24 10.801-24 24v192c0 13.199 10.801 24 24 24zm24-192h72v144h-72z"/>
  <path d="m1128 312h-1056c-13.199 0-24 10.801-24 24v84c0 13.199 10.801 24 24 24 7.1992 0 12 4.8008 12 12s-4.8008 12-12 12c-13.199 0-24 10.801-24 24v372c0 13.199 10.801 24 24 24h660c13.199 0 24-10.801 24-24v-132c0-7.1992 4.8008-12 12-12 4.8008 0 7.1992 2.3984 8.3984 3.6016 1.1992 1.1992 3.6016 3.6016 3.6016 8.3984v132c0 13.199 10.801 24 24 24h324c13.199 0 24-10.801 24-24v-372c0-13.199-10.801-24-24-24-7.1992 0-12-4.8008-12-12s4.8008-12 12-12c13.199 0 24-10.801 24-24v-84c0-13.199-10.801-24-24-24zm-24 88.801c-21.602 9.6016-36 30-36 55.199s14.398 45.602 36 55.199v328.8h-24v-84c0-13.199-10.801-24-24-24s-24 10.801-24 24v84h-36v-84c0-13.199-10.801-24-24-24s-24 10.801-24 24v84h-36v-84c0-13.199-10.801-24-24-24s-24 10.801-24 24v84h-36v-108c0-15.602-6-31.199-18-42s-26.398-18-42-18c-33.602 0-60 26.398-60 60v108h-36v-84c0-13.199-10.801-24-24-24s-24 10.801-24 24v84h-36v-84c0-13.199-10.801-24-24-24s-24 10.801-24 24v84h-36v-84c0-13.199-10.801-24-24-24s-24 10.801-24 24v84h-36v-84c0-13.199-10.801-24-24-24s-24 10.801-24 24v84h-36v-84c0-13.199-10.801-24-24-24s-24 10.801-24 24v84h-36v-84c0-13.199-10.801-24-24-24s-24 10.801-24 24v84h-36v-84c0-13.199-10.801-24-24-24s-24 10.801-24 24v84h-24v-328.8c21.602-9.6016 36-30 36-55.199s-14.398-45.602-36-55.199v-40.801h1008z"/>
 </g>
</svg>
