<?xml version="1.0" encoding="UTF-8"?>
<svg version="1.1" xmlns="http://www.w3.org/2000/svg" xmlns:xlink="http://www.w3.org/1999/xlink" x="0px" y="0px" viewBox="0 0 1200 1200" xml:space="preserve">
 <g>
  <path d="m1050 744.72c-11.98-4.3164-25.188-3.6953-36.711 1.7305-11.523 5.4258-20.422 15.207-24.73 27.191-19.859 55.234-51.746 105.36-93.359 146.76-74.012 74.027-174.15 116-278.82 116.88-104.67 0.875-205.5-39.418-280.74-112.2-75.242-72.777-118.87-172.21-121.48-276.85-2.6055-104.64 36.016-206.12 107.54-282.56 71.523-76.434 170.22-121.7 274.8-126.04 104.59-4.3359 206.7 32.598 284.3 102.85h-172.08c-17.148 0-32.992 9.1484-41.566 24-8.5742 14.852-8.5742 33.148 0 48 8.5742 14.852 24.418 24 41.566 24l276-0.71875c12.73 0 24.941-5.0586 33.941-14.062 9.0039-9 14.059-21.207 14.059-33.938l0.71875-276h0.003906c0-12.73-5.0586-24.941-14.059-33.941-9.0039-9.0039-21.211-14.059-33.941-14.059-12.73 0-24.941 5.0547-33.941 14.059-9.0039 9-14.059 21.211-14.059 33.941v149.52c-79.836-68.965-179.63-110.59-284.8-118.8s-210.22 17.438-299.78 73.18c-89.562 55.746-158.95 138.67-198.03 236.66-39.074 97.988-45.793 205.91-19.168 307.99s85.199 192.97 167.16 259.39c81.961 66.418 183.01 104.89 288.39 109.79 105.38 4.8984 209.57-24.031 297.33-82.566 87.77-58.531 154.52-143.6 190.5-242.77 4.3125-11.996 3.6719-25.219-1.7734-36.742-5.4492-11.527-15.258-20.414-27.266-24.699z"/>
 </g>
</svg>
