<?xml version="1.0" encoding="UTF-8"?>
<svg version="1.1" xmlns="http://www.w3.org/2000/svg" xmlns:xlink="http://www.w3.org/1999/xlink" x="0px" y="0px" viewBox="0 0 1200 1200" xml:space="preserve">
 <g>
  <path d="m637.15 965.39c-5.0391 5.625-10.43 10.898-16.172 15.82-1.0547 0.82031-1.9922 1.6406-3.0469 2.4609-5.1562 4.3359 5.3906-3.6328-0.23438 0.11719-3.0469 2.1094-6.0938 4.2188-9.375 6.0938-2.5781 1.5234-5.2734 2.9297-7.9688 4.2188-0.58594 0.23438-1.0547 0.46875-1.6406 0.70313-2.8125 1.2891-2.1094 0.9375 2.2266-0.9375-1.1719 0.11719-2.8125 1.0547-4.1016 1.5234-2.9297 1.0547-5.9766 1.875-9.0234 2.5781-1.0547 0.23438-2.2266 0.46875-3.2812 0.70312-8.0859 1.5234 4.6875-0.23438-0.58594 0.11719-4.5703 0.23438-9.2578 0.35156-13.828 0-1.0547-0.11719-2.2266-0.23437-3.2812-0.35156 9.8438 0.58594 6.7969 1.0547 4.5703 0.58594-2.1094-0.46875-4.3359-0.82031-6.4453-1.2891-3.9844-0.9375-7.7344-2.4609-11.602-3.75-3.9844-1.4062 4.2188 1.7578 3.8672 1.6406-1.0547-0.23438-2.2266-0.9375-3.1641-1.4062-2.1094-1.0547-4.1016-2.1094-6.2109-3.2812-3.6328-2.1094-7.1484-4.3359-10.664-6.7969-0.82031-0.58594-1.6406-1.1719-2.4609-1.875-4.1016-3.0469 5.9766 4.8047 1.9922 1.5234-1.9922-1.6406-3.9844-3.2812-5.8594-5.0391-7.3828-6.5625-14.062-13.828-20.273-21.445-0.82031-0.9375-1.5234-1.875-2.2266-2.8125 5.9766 6.9141 2.2266 2.9297 0.9375 1.2891-1.5234-1.9922-2.9297-4.1016-4.4531-6.0938-3.2812-4.6875-6.4453-9.4922-9.4922-14.414-6.4453-10.547-12.305-21.445-17.695-32.578-2.5781-5.3906-5.1562-10.898-7.5-16.289-0.23438-0.58594-0.46875-1.1719-0.70312-1.6406-1.2891-2.9297-0.9375-2.2266 0.82031 1.875-0.11719-1.2891-1.2891-3.0469-1.7578-4.3359-1.4062-3.5156-2.8125-7.0312-4.2188-10.547-5.0391-13.359-9.6094-26.836-13.711-40.547-8.2031-27.422-14.766-55.43-19.805-83.672-1.2891-6.9141-2.4609-13.945-3.5156-20.859-0.58594-3.3984-1.0547-6.7969-1.5234-10.078-0.35156-1.9922-0.58594-4.1016-0.82031-6.0938-1.0547-7.1484 0.82031 6.7969 0-0.46875-1.9922-15.469-3.6328-30.938-4.9219-46.523-2.5781-31.758-3.75-63.75-3.3984-95.625 0.23438-32.344 1.9922-64.57 5.1562-96.68 0.70313-7.0312 1.5234-14.062 2.3438-20.977 0.23438-1.9922 1.4062-13.359 0.58594-4.5703 0.35156-4.1016 1.1719-8.2031 1.7578-12.305 2.2266-14.531 4.6875-29.062 7.6172-43.477 5.625-27.891 12.656-55.664 21.562-82.734 2.2266-6.9141 4.6875-13.711 7.1484-20.508 1.1719-3.0469 2.2266-5.9766 3.3984-9.0234 1.1719-2.9297 3.9844-7.3828 4.2188-10.547-0.46875 1.1719-1.0547 2.3438-1.5234 3.6328 0.46875-1.1719 0.9375-2.2266 1.4062-3.3984 0.46875-1.1719 0.9375-2.2266 1.5234-3.3984 1.2891-3.0469 2.6953-5.9766 4.1016-9.0234 2.8125-6.0938 5.8594-12.07 9.0234-17.93 5.5078-10.312 11.484-20.273 18.047-29.883 1.5234-2.3438 3.1641-4.5703 4.8047-6.9141 0.58594-0.82031 1.1719-1.6406 1.7578-2.4609 3.3984-4.5703-4.5703 5.625-0.9375 1.2891 3.2812-4.1016 6.5625-8.0859 10.195-11.953 3.1641-3.5156 6.5625-6.9141 9.9609-10.078 1.7578-1.6406 3.5156-3.1641 5.3906-4.8047 0.70312-0.58594 1.2891-1.0547 1.9922-1.6406 5.5078-4.4531-4.9219 3.5156-0.9375 0.70313 7.0312-5.0391 14.18-9.2578 21.914-13.008 3.1641-1.5234-7.8516 2.9297-3.2812 1.4062 1.0547-0.35156 2.1094-0.82031 3.1641-1.1719 1.7578-0.58594 3.5156-1.1719 5.2734-1.6406s3.5156-0.9375 5.3906-1.2891c3.3984-0.70312 10.664-0.58594-0.23438-0.23437 3.9844-0.11719 7.9688-0.70313 12.07-0.58594 1.875 0 3.6328 0.23438 5.5078 0.35156 0.70312 0 1.4062 0.23438 2.2266 0.23438-10.312-0.35156-5.2734-0.70313-2.3438-0.23438 3.6328 0.70313 7.1484 1.6406 10.664 2.6953 1.9922 0.58594 3.8672 1.4062 5.8594 2.1094 3.2812 1.1719-7.6172-3.5156-3.2812-1.4062 1.1719 0.58594 2.4609 1.1719 3.6328 1.7578 3.75 1.875 7.2656 3.8672 10.781 6.0938 1.7578 1.0547 3.3984 2.2266 5.0391 3.3984 1.0547 0.70312 1.9922 1.5234 3.0469 2.2266-7.8516-5.5078-3.75-2.8125-1.9922-1.4062 7.6172 6.2109 14.648 13.242 21.094 20.625 1.5234 1.7578 3.0469 3.6328 4.5703 5.5078 0.9375 1.1719 1.7578 2.3438 2.6953 3.3984-5.2734-6.4453-3.0469-3.9844-1.875-2.3438 3.6328 4.9219 7.1484 9.9609 10.547 15.117 6.3281 9.7266 12.07 19.805 17.344 30.117 2.9297 5.7422 5.7422 11.602 8.4375 17.578 1.2891 2.8125 2.4609 5.5078 3.75 8.3203 2.5781 5.8594-1.9922-4.9219-0.46875-1.0547 0.82031 1.9922 1.6406 4.1016 2.4609 6.0938 10.664 26.836 19.219 54.492 26.133 82.5 3.6328 14.648 6.7969 29.414 9.6094 44.18 1.2891 7.0312 2.5781 13.945 3.6328 20.977 0.70312 4.3359 1.4062 8.5547 1.9922 12.891 0.23437 1.4062 0.46875 2.9297 0.58594 4.3359 0.23438 1.6406 1.875 11.484 0.46875 3.1641 2.5781 15.469 3.75 31.406 5.0391 47.109 1.2891 15.234 12.539 30 29.297 29.297 14.766-0.70312 30.703-12.891 29.297-29.297-5.625-66.211-16.406-132.42-37.031-195.7-17.109-52.5-40.547-105.35-77.93-146.72-28.008-31.055-68.555-54.844-111.68-49.805-48.398 5.7422-84.609 38.906-111.68 77.461-33.047 46.992-53.32 103.59-67.617 158.79-15.82 61.289-24.375 124.69-27.656 187.85-3.5156 68.555-0.35156 137.11 9.1406 205.08 8.2031 59.531 21.797 118.95 44.766 174.49 19.102 46.406 43.945 94.688 84.141 126.33 16.875 13.359 35.977 24.609 57.422 28.477 30 5.3906 60.234-0.35156 86.133-16.758 13.828-8.7891 26.367-19.688 37.383-31.758 10.312-11.367 12.07-30.352 0-41.484-11.367-10.195-30.469-12.07-41.484 0.11719z"/>
  <path d="m875.27 236.13c-7.9688 7.8516-16.055 15.469-24.609 22.734-3.8672 3.3984-7.8516 6.5625-11.836 9.8438l-3.5156 2.8125c-3.2812 2.5781 5.8594-4.4531 0.9375-0.70313-2.4609 1.875-4.8047 3.6328-7.2656 5.3906-17.812 13.125-36.68 24.844-56.25 35.156-9.9609 5.2734-20.156 10.078-30.586 14.648-1.5234 0.70312-5.1562 1.9922 1.875-0.82031-1.1719 0.46875-2.2266 0.9375-3.3984 1.4062-2.8125 1.1719-5.7422 2.3438-8.5547 3.3984-5.1562 1.9922-10.312 3.8672-15.586 5.7422-21.797 7.5-44.062 13.242-66.797 17.344-5.2734 0.9375-10.547 1.7578-15.82 2.5781-4.3359 0.70313 7.7344-0.9375 1.1719-0.11719-1.2891 0.11719-2.4609 0.35156-3.75 0.46875-3.1641 0.35156-6.3281 0.70312-9.4922 1.0547-11.836 1.1719-23.672 1.875-35.625 2.1094-11.953 0.23437-23.906 0-35.859-0.70313-5.3906-0.35156-10.898-0.70312-16.289-1.2891-2.8125-0.23438-5.7422-0.58594-8.5547-0.9375-1.2891-0.11719-2.5781-0.35156-3.75-0.46875-1.2891-0.11719-2.4609-0.35156-3.75-0.46875 1.2891 0.23438 2.6953 0.35156 3.9844 0.58594-22.852-4.3359-45.352-8.0859-67.734-14.883-10.664-3.1641-21.094-6.7969-31.523-10.781-2.5781-0.9375-5.1562-1.9922-7.7344-3.0469-1.4062-0.58594-2.8125-1.2891-4.2188-1.7578 0.58594 0.11719 6.4453 2.8125 1.875 0.82031-5.2734-2.3438-10.547-4.6875-15.82-7.2656-22.383-10.781-43.945-23.438-64.336-37.734-5.1562-3.6328-9.9609-8.0859-15.352-11.25 0.46875 0.23438 5.5078 4.3359 1.6406 1.2891-1.4062-1.1719-2.8125-2.2266-4.2188-3.3984-2.3438-1.875-4.6875-3.8672-7.0312-5.7422-9.7266-8.2031-18.984-16.758-28.008-25.664v41.484c7.9688-7.8516 16.055-15.469 24.609-22.734 3.8672-3.3984 7.8516-6.5625 11.836-9.8438l3.5156-2.8125c3.2812-2.5781-5.8594 4.4531-0.9375 0.70312 2.4609-1.875 4.8047-3.6328 7.2656-5.3906 17.812-13.125 36.68-24.844 56.25-35.156 9.9609-5.2734 20.156-10.078 30.586-14.648 1.5234-0.70313 5.1562-1.9922-1.875 0.82031 1.1719-0.46875 2.2266-0.9375 3.3984-1.4062 2.8125-1.1719 5.7422-2.3438 8.5547-3.3984 5.1562-1.9922 10.312-3.8672 15.586-5.7422 21.797-7.5 44.062-13.242 66.797-17.344 5.2734-0.9375 10.547-1.7578 15.82-2.5781 4.3359-0.70312-7.7344 0.9375-1.1719 0.11719 1.2891-0.11719 2.4609-0.35156 3.75-0.46875 3.1641-0.35156 6.3281-0.70313 9.4922-1.0547 11.836-1.1719 23.672-1.875 35.625-2.1094s23.906 0 35.859 0.70312c5.3906 0.35156 10.898 0.70312 16.289 1.2891 2.8125 0.23438 5.7422 0.58594 8.5547 0.9375 1.2891 0.11719 2.5781 0.35156 3.75 0.46875 1.2891 0.11719 2.4609 0.35156 3.75 0.46875-1.2891-0.23437-2.6953-0.35156-3.9844-0.58594 22.852 4.3359 45.352 8.0859 67.734 14.883 10.664 3.1641 21.094 6.7969 31.523 10.781 2.5781 0.9375 5.1562 1.9922 7.7344 3.0469 1.4062 0.58594 2.8125 1.2891 4.2188 1.7578-0.58594-0.11719-6.4453-2.8125-1.875-0.82031 5.2734 2.3438 10.547 4.6875 15.82 7.2656 22.383 10.781 43.945 23.438 64.336 37.734 5.1562 3.6328 9.9609 8.0859 15.352 11.25-0.46875-0.23437-5.5078-4.3359-1.6406-1.2891 1.4062 1.1719 2.8125 2.2266 4.2188 3.3984 2.3438 1.875 4.6875 3.8672 7.0312 5.7422 9.7266 8.2031 18.984 16.758 28.008 25.664 10.898 10.781 30.703 11.719 41.484 0 10.664-11.602 11.602-29.883 0-41.484-68.438-67.852-157.27-115.31-252.3-132.19-100.66-17.812-204.02-4.1016-296.25 39.961-48.047 22.969-92.227 54.727-129.96 92.227-11.25 11.133-11.25 30.352 0 41.484 68.438 67.852 157.27 115.31 252.3 132.19 100.66 17.812 204.02 4.1016 296.25-39.961 48.047-22.969 92.227-54.727 129.96-92.227 10.898-10.781 11.602-30.703 0-41.484-11.836-10.781-29.883-11.602-41.484 0z"/>
  <path d="m279.61 917.58c8.6719-8.5547 17.578-16.758 26.836-24.727 4.1016-3.5156 8.3203-6.9141 12.539-10.312 5.2734-4.2188-3.8672 2.8125-0.35156 0.23438 1.0547-0.82031 2.1094-1.6406 3.2812-2.4609 2.6953-1.9922 5.3906-3.9844 8.2031-5.9766 19.336-13.828 39.727-26.016 60.938-36.68 5.0391-2.5781 10.195-4.9219 15.352-7.2656 2.4609-1.0547 4.9219-2.1094 7.3828-3.2812 6.2109-2.6953-4.5703 1.875-0.46875 0.23438 1.5234-0.58594 3.0469-1.2891 4.6875-1.875 11.25-4.4531 22.734-8.5547 34.336-12.07 11.367-3.5156 22.852-6.5625 34.453-9.1406 5.7422-1.2891 11.367-2.4609 17.109-3.5156 5.8594-1.0547 12.422-2.9297 18.398-2.9297-6.7969 0.11719-3.5156 0.46875-1.6406 0.23438 2.1094-0.23438 4.1016-0.46875 6.2109-0.70312 3.5156-0.35156 6.9141-0.70312 10.43-1.0547 7.0312-0.58594 13.945-1.0547 20.977-1.4062 14.766-0.58594 29.414-0.46875 44.18 0.23438 15.352 0.82031 30-14.062 29.297-29.297-0.70312-16.523-12.891-28.477-29.297-29.297-104.18-5.3906-210.12 23.672-296.02 83.086-24.258 16.758-47.227 35.625-68.203 56.367-10.898 10.781-11.602 30.703 0 41.484 11.719 10.898 29.766 11.602 41.367 0.11719z"/>
  <path d="m1052.7 504.73c-10.664-73.711-39.609-145.43-83.086-205.9-43.242-60.234-99.492-110.74-164.88-145.78-66.914-35.742-141.68-55.312-217.5-56.953-76.289-1.6406-152.11 15.469-220.66 48.633-64.102 30.938-121.76 77.344-165.59 133.36-45.82 58.594-79.102 126.56-93.984 199.69-15.469 75.586-13.359 154.69 7.5 228.98 20.039 71.367 56.836 137.34 106.29 192.42 49.57 55.195 111.8 97.383 180.47 124.92 71.25 28.711 150.82 39.258 227.23 30.703 22.031-2.4609 43.945-6.0938 65.391-11.367 14.883-3.6328 25.195-21.328 20.508-36.094-5.0391-15.469-20.039-24.375-36.094-20.508-9.8438 2.3438-19.688 4.4531-29.531 6.2109-4.6875 0.82031-9.2578 1.5234-13.945 2.2266-1.0547 0.11719-5.7422 0.9375-1.5234 0.23437 3.9844-0.58594 0.35156 0-0.46875 0-2.9297 0.35156-5.8594 0.70313-8.6719 0.9375-20.039 1.9922-40.195 2.8125-60.352 2.1094-9.0234-0.23438-18.047-0.82031-27.07-1.6406-4.1016-0.35156-8.3203-0.82031-12.422-1.2891-1.9922-0.23438-9.375-1.4062-0.70312 0-2.2266-0.35156-4.4531-0.58594-6.5625-0.9375-17.461-2.6953-34.688-6.3281-51.68-11.016-16.758-4.5703-33.164-10.195-49.336-16.641-1.875-0.70312-8.3203-3.75-0.70312-0.23438-1.6406-0.82031-3.3984-1.4062-5.0391-2.2266-4.2188-1.875-8.4375-3.75-12.539-5.7422-7.5-3.5156-14.766-7.3828-22.031-11.25-15-8.2031-29.414-17.227-43.359-27.07-3.5156-2.4609-6.9141-4.9219-10.312-7.5-1.4062-1.0547-2.9297-2.2266-4.3359-3.2812 0.46875 0.35156 5.5078 4.3359 1.6406 1.1719-0.9375-0.70313-1.875-1.5234-2.8125-2.2266-6.6797-5.2734-13.125-10.781-19.453-16.523-12.656-11.25-24.609-23.32-35.859-35.977-5.625-6.3281-11.133-12.773-16.289-19.453-1.1719-1.4062-2.2266-2.8125-3.3984-4.3359 0.35156 0.46875 4.2188 5.5078 1.2891 1.6406-0.58594-0.70313-1.0547-1.4062-1.6406-2.2266-2.6953-3.6328-5.3906-7.2656-7.9688-11.016-9.6094-13.711-18.398-27.891-26.484-42.539-4.1016-7.5-7.9688-15.117-11.602-22.734-1.7578-3.6328-3.3984-7.1484-5.0391-10.781-0.35156-0.82031-3.2812-7.7344-1.4062-3.2812 1.6406 3.9844 0.35156 0.9375 0 0.11719-0.58594-1.4062-1.1719-2.8125-1.7578-4.2188-12.891-31.992-22.031-65.508-27.305-99.609-0.11719-0.9375-1.1719-8.6719-0.58594-3.6328 0.58594 4.8047-0.23438-2.2266-0.46875-3.6328l-1.4062-13.359c-0.82031-9.0234-1.2891-17.93-1.6406-26.953-0.58594-18.047 0-36.211 1.6406-54.258 0.35156-4.1016 0.82031-8.2031 1.2891-12.422 0.23438-2.2266 0.58594-4.4531 0.82031-6.5625 0-0.11719-0.9375 6.4453-0.35156 3.0469 0.23438-1.5234 0.46875-3.1641 0.70312-4.6875 1.2891-8.6719 2.9297-17.344 4.8047-26.016 3.6328-16.758 8.0859-33.164 13.594-49.453 2.6953-8.2031 5.7422-16.289 8.9062-24.258 0.82031-1.9922 1.875-3.9844 2.4609-5.9766 0-0.11719-2.4609 5.7422-1.1719 2.8125 0.46875-1.1719 0.9375-2.2266 1.5234-3.3984 1.7578-3.8672 3.5156-7.8516 5.3906-11.719 7.2656-15.352 15.469-30.352 24.492-44.766 4.4531-7.1484 9.1406-14.297 14.062-21.211 2.2266-3.1641 4.5703-6.4453 6.9141-9.6094 0.70312-0.9375 5.0391-6.6797 2.1094-2.8125-2.8125 3.6328 1.4062-1.7578 2.2266-2.6953 10.547-13.242 21.797-25.898 33.75-37.852 11.953-11.953 24.492-23.32 37.734-33.867 0.9375-0.70312 6.5625-5.1562 2.6953-2.2266-3.6328 2.8125 1.1719-0.9375 2.1094-1.5234 3.6328-2.6953 7.2656-5.3906 11.016-7.9688 6.9141-4.9219 13.945-9.6094 21.211-14.062 14.414-9.0234 29.414-17.227 44.766-24.609 3.6328-1.7578 7.1484-3.3984 10.781-5.0391 1.9922-0.82031 3.9844-1.6406 5.8594-2.5781 0.11719-0.11719-5.7422 2.3438-2.8125 1.1719 1.1719-0.46875 2.2266-0.9375 3.3984-1.4062 7.9688-3.2812 16.055-6.2109 24.141-9.0234 16.406-5.625 33.164-10.312 50.156-13.945 8.5547-1.875 17.227-3.5156 25.898-4.8047 2.2266-0.35156 4.4531-0.58594 6.5625-0.9375 0.11719 0-6.4453 0.82031-3.0469 0.46875 0.9375-0.11719 1.875-0.23438 2.8125-0.35156 4.6875-0.58594 9.4922-1.0547 14.297-1.5234 17.695-1.6406 35.391-2.2266 53.203-1.7578 9.0234 0.23437 18.047 0.70312 26.953 1.5234 4.4531 0.35156 8.9062 0.82031 13.359 1.2891 1.875 0.23437 3.75 0.46875 5.625 0.70312 5.1562 0.58594-1.5234-0.23437-2.1094-0.23437 1.2891 0.23437 2.4609 0.35156 3.75 0.58594 34.453 5.1562 68.203 14.297 100.55 27.188 1.7578 0.70312 3.3984 1.4062 5.1562 2.1094 1.6406 0.70312 4.8047 2.4609-1.875-0.82031 0.82031 0.35156 1.6406 0.70312 2.5781 1.0547 4.2188 1.875 8.3203 3.75 12.539 5.7422 7.3828 3.5156 14.766 7.2656 22.031 11.133 14.883 8.0859 29.414 16.992 43.359 26.719 3.2812 2.2266 6.4453 4.5703 9.6094 6.9141 1.7578 1.2891 3.3984 2.5781 5.0391 3.75 0.70312 0.58594 1.4062 1.0547 2.1094 1.6406-6.3281-4.6875-2.3438-1.7578-0.9375-0.70312 6.6797 5.2734 13.125 10.664 19.453 16.289 12.539 11.133 24.609 22.969 35.859 35.508 5.8594 6.4453 11.484 13.125 16.875 19.922 1.4062 1.6406 2.6953 3.3984 4.1016 5.1562 1.9922 2.5781-1.7578-2.3438-1.7578-2.2266 0.70312 1.0547 1.5234 1.9922 2.2266 2.9297 2.5781 3.5156 5.1562 7.0312 7.7344 10.547 10.078 14.297 19.336 29.18 27.656 44.531 4.2188 7.7344 8.2031 15.586 11.953 23.438 1.7578 3.75 3.3984 7.3828 5.0391 11.133 0.46875 1.1719 1.0547 2.3438 1.5234 3.5156 1.2891 3.0469-1.1719-2.6953-1.0547-2.6953 0.82031 2.3438 1.875 4.6875 2.8125 7.0312 6.5625 16.523 12.07 33.516 16.641 50.742 4.4531 16.875 7.8516 33.984 10.43 51.211 0.9375 6.7969 7.8516 14.18 13.477 17.461 6.3281 3.6328 15.586 5.2734 22.617 2.9297s13.945-6.6797 17.461-13.477c3.3984-7.0312 3.6328-13.945 2.4609-22.148z"/>
  <path d="m125.98 606.09h110.16 100.08 111.09 125.86 102.07 4.6875c15.352 0 30-13.477 29.297-29.297s-12.891-29.297-29.297-29.297h-102.77-109.92-127.03-84.375-127.38-2.4609c-15.352 0-30 13.477-29.297 29.297 0.70312 15.938 12.773 29.297 29.297 29.297z"/>
  <path d="m1045.4 774.14c0 7.0312-0.46875 14.062-1.1719 21.094-0.11719 0.9375-0.23437 1.9922-0.35156 2.9297-0.35156 3.2812 0.58594-4.8047 0.58594-4.1016 0 1.6406-0.46875 3.5156-0.82031 5.0391-0.58594 3.6328-1.2891 7.2656-2.1094 10.898-3.1641 14.531-7.6172 28.711-13.008 42.539-0.70313 1.6406-1.2891 3.2812-1.9922 4.9219-0.23438 0.70312-0.58594 1.4062-0.82031 2.1094-1.2891 3.3984 2.6953-6.0938 1.1719-2.8125-1.5234 3.5156-3.1641 7.0312-4.6875 10.547-3.1641 6.7969-6.5625 13.477-10.078 20.039-7.0312 13.125-14.766 25.898-22.852 38.32-8.0859 12.188-16.523 24.141-25.43 35.859-0.46875 0.58594-0.9375 1.1719-1.2891 1.7578-2.1094 2.8125 4.1016-5.2734 1.9922-2.5781-1.0547 1.2891-1.9922 2.5781-3.0469 3.8672-2.1094 2.6953-4.3359 5.5078-6.5625 8.2031-4.1016 5.0391-8.3203 10.078-12.539 15-13.828 16.172-28.242 31.758-43.242 46.641-7.0312 7.0312-14.18 13.945-21.562 20.508h41.484c-30.234-26.602-57.539-57.188-82.5-88.711-1.2891-1.6406-2.6953-3.2812-3.8672-4.9219 4.4531 6.3281 0.23438 0.35156-0.58594-0.82031-2.5781-3.3984-5.1562-6.9141-7.7344-10.43-5.625-7.6172-11.016-15.352-16.172-23.32-9.7266-14.766-18.867-30-26.953-45.703-3.9844-7.8516-7.7344-15.703-11.25-23.789-3.0469-6.7969 2.2266 5.8594-0.46875-1.0547-0.82031-1.9922-1.6406-3.9844-2.3438-6.0938-1.5234-3.9844-3.0469-8.0859-4.3359-12.188-2.6953-8.0859-5.0391-16.289-7.0312-24.609-0.9375-4.1016-1.7578-8.2031-2.5781-12.422-0.35156-1.7578-1.1719-4.3359-1.0547-6.2109 0.58594 4.3359 0.58594 4.9219 0.23438 1.5234-0.11719-1.4062-0.35156-2.8125-0.46875-4.1016-0.70313-7.8516-1.0547-15.703-0.82031-23.438 0.11719-2.9297 0.23438-5.8594 0.46875-8.6719 0.11719-1.7578 0.35156-3.3984 0.46875-5.1562 0.9375-8.3203-0.82031 4.4531 0.11719-0.70313 1.1719-6.6797 2.4609-13.359 4.3359-19.922 0.9375-3.2812 1.875-6.4453 3.0469-9.6094 0.58594-1.6406 1.0547-3.1641 1.6406-4.6875 0.82031-2.1094 4.4531-8.9062 0.11719-0.70312 6.2109-11.836 11.719-23.438 19.57-34.336 1.4062-1.875 5.1562-5.1562-0.58594 0.70312 1.1719-1.1719 2.1094-2.5781 3.0469-3.8672 2.1094-2.4609 4.2188-4.9219 6.5625-7.3828 4.4531-4.8047 9.2578-9.375 14.18-13.594 1.2891-1.0547 2.5781-2.1094 3.75-3.1641 4.6875-3.8672-5.625 4.1016-0.70312 0.58594 2.6953-1.9922 5.2734-3.8672 8.0859-5.7422 5.9766-3.9844 12.188-7.6172 18.516-10.781 2.5781-1.2891 6.9141-2.3438 9.0234-4.2188-1.0547 0.46875-2.2266 0.9375-3.2812 1.4062 1.2891-0.46875 2.4609-1.0547 3.75-1.5234 1.875-0.70312 3.75-1.4062 5.7422-2.1094 7.7344-2.6953 15.703-4.6875 23.672-6.3281 1.9922-0.35156 4.1016-0.70312 6.0938-1.0547 7.1484-1.2891-6.7969 0.58594 0.46875 0 4.2188-0.35156 8.4375-0.70313 12.656-0.9375 8.7891-0.35156 17.461 0.23437 26.25 0.9375 6.9141 0.58594-6.7969-1.1719 0 0 1.875 0.35156 3.8672 0.58594 5.7422 1.0547 3.1641 0.58594 6.3281 1.2891 9.4922 2.1094 1.9922 0.46875 23.672 7.5 23.555 7.7344-1.1719-0.46875-2.3438-0.9375-3.5156-1.5234 1.1719 0.46875 2.3438 1.0547 3.3984 1.5234 2.3438 1.0547 4.5703 2.1094 6.7969 3.2812 3.8672 1.9922 7.7344 4.1016 11.484 6.4453 3.75 2.2266 7.3828 4.6875 10.898 7.2656 0.35156 0.23438 4.3359 3.3984 4.4531 3.2812-3.5156-2.6953-3.9844-3.0469-1.5234-1.0547 0.46875 0.35156 0.9375 0.82031 1.4062 1.1719 6.3281 5.2734 12.305 11.016 17.812 17.109 2.5781 2.8125 5.0391 7.0312 7.9688 9.375-0.82031-1.0547-1.6406-2.1094-2.4609-3.1641 0.70312 0.9375 1.4062 1.875 2.1094 2.8125 1.4062 1.875 2.6953 3.8672 4.1016 5.8594 4.2188 6.4453 8.0859 13.125 11.484 20.039 0.82031 1.6406 1.5234 3.1641 2.3438 4.8047 0.46875 1.0547 0.9375 2.2266 1.4062 3.2812-1.7578-4.2188-2.1094-4.9219-0.9375-1.9922 1.4062 3.9844 2.9297 7.8516 4.2188 11.836 2.5781 8.2031 4.3359 16.406 5.8594 24.844 1.1719 6.5625-0.70312-7.1484 0-0.46875 0.23438 2.4609 0.46875 4.9219 0.70313 7.3828 0.23437 4.5703 0.35156 9.0234 0.46875 13.359 0.11719 15.352 13.359 30 29.297 29.297 15.82-0.70312 29.414-12.891 29.297-29.297-0.35156-71.367-37.852-138.4-98.672-175.78-64.102-39.492-148.36-39.727-212.81-0.9375-57.305 34.453-93.633 94.688-99.492 161.02-3.2812 36.68 4.5703 74.414 17.812 108.52 14.414 37.383 33.984 72.188 57.07 104.88 31.289 44.297 67.383 86.25 107.58 122.81 0.70313 0.58594 1.4062 1.2891 1.9922 1.875 12.422 11.016 28.945 11.016 41.484 0 21.68-19.102 41.719-40.547 60.586-62.344 41.133-47.227 77.461-98.789 101.84-156.8 13.711-32.578 22.5-67.617 22.617-103.24 0.11719-15.352-13.477-30-29.297-29.297-15.938 0.70312-29.297 12.891-29.297 29.297z"/>
  <path d="m912.89 774.14c0 1.0547-0.11719 2.1094-0.11719 3.1641 0 3.0469-1.7578 1.5234 0.46875-3.0469-0.70313 1.4062-0.9375 3.75-1.2891 5.2734-1.5234 5.8594 2.8125-4.8047 0.35156-0.58594-1.0547 1.7578-1.9922 3.5156-3.0469 5.2734-2.2266 3.8672 1.4062-2.1094 1.875-2.3438-0.58594 0.35156-1.4062 1.6406-1.9922 2.2266-0.9375 1.0547-5.625 4.8047-1.5234 1.7578 4.3359-3.1641-0.9375 0.46875-1.9922 1.1719-0.82031 0.46875-1.7578 0.9375-2.6953 1.4062-4.1016 2.3438 5.3906-1.4062 2.1094-0.82031-1.6406 0.23437-3.5156 0.9375-5.1562 1.5234-4.6875 1.4062 3.0469-0.23438 3.1641-0.23438-0.70312 0.23438-2.5781 0.23438-3.1641 0.23438-1.875 0.11719-3.75-0.11719-5.625-0.11719-3.2812-0.11719 4.4531 0.35156 3.8672 0.46875-0.70312 0.23437-2.9297-0.58594-3.75-0.82031-0.9375-0.23438-1.9922-0.70312-2.9297-0.9375-2.6953-0.46875 3.3984 1.5234 3.3984 1.5234-1.5234-1.1719-3.75-1.875-5.3906-2.9297-0.70312-0.46875-1.7578-1.4062-2.4609-1.7578 0.11719 0 4.6875 4.2188 3.0469 2.2266-0.9375-1.1719-3.3984-4.1016-4.8047-4.8047 0 0 3.6328 5.3906 2.2266 2.9297-0.46875-0.82031-1.1719-1.6406-1.6406-2.5781-0.9375-1.5234-1.5234-3.2812-2.4609-4.6875 3.6328 5.1562 1.875 5.2734 1.2891 2.6953-0.23438-1.0547-0.58594-1.9922-0.82031-2.9297-0.23438-0.70312-0.23438-1.6406-0.46875-2.2266-1.2891-3.1641 0.35156 7.2656 0.35156 2.3438 0-1.875-0.11719-3.75 0-5.625 0.35156-6.7969-1.5234 5.2734-0.11719 0.70313 0.46875-1.5234 1.7578-4.4531 1.7578-5.9766 0 0.46875-3.3984 6.6797-1.1719 2.8125 0.46875-0.82031 0.9375-1.7578 1.4062-2.6953 0.46875-0.82031 1.0547-1.6406 1.6406-2.5781 1.5234-2.4609 2.2266-0.46875-1.875 2.3438 1.2891-0.82031 2.5781-2.6953 3.6328-3.8672 4.2188-4.3359-4.6875 2.8125-0.58594 0.35156 1.875-1.1719 3.9844-2.2266 5.8594-3.3984 2.3438-1.5234-3.5156 1.4062-3.5156 1.4062 0.70312 0 2.1094-0.70312 2.9297-0.9375 1.4062-0.46875 7.5-1.4062 2.2266-0.82031-5.625 0.70313 1.1719 0 2.4609 0 1.0547 0 2.1094 0.11719 3.1641 0.11719 5.0391 0.11719-5.625-1.4062-2.3438-0.35156 1.5234 0.46875 5.0391 1.875 6.6797 1.875 0 0-5.7422-2.9297-3.5156-1.4062 1.0547 0.70312 2.2266 1.1719 3.3984 1.7578 0.82031 0.46875 1.6406 1.0547 2.5781 1.6406 3.3984 1.9922-1.875-1.1719-2.3438-1.875 0.82031 1.4062 3.6328 3.6328 4.8047 4.8047 2.5781 2.3438-3.3984-5.5078-1.7578-2.3438 0.58594 1.0547 1.4062 2.1094 2.1094 3.1641 0.35156 0.70312 0.70313 1.2891 1.0547 1.9922 2.5781 4.2188-0.70312-0.46875-0.82031-2.1094 0 1.7578 1.1719 4.2188 1.7578 5.9766 1.4062 4.5703-0.23438-3.0469-0.23438-3.1641 0.35156 1.2891 0 3.5156 0 4.8047 0.23438 15.352 13.242 30 29.297 29.297 15.586-0.70312 29.648-12.891 29.297-29.297-0.58594-31.758-20.391-58.945-50.273-69.609-26.953-9.6094-60.469-0.70312-78.633 21.68-19.57 24.141-24.023 57.539-7.9688 84.961 16.172 27.656 48.047 40.43 79.102 34.57 33.75-6.4453 57.07-38.32 57.656-71.602 0.23437-15.352-13.711-30-29.297-29.297-15.938 0.70312-28.828 12.891-29.18 29.297z"/>
 </g>
</svg>
