<?xml version="1.0" encoding="UTF-8"?>
<svg version="1.1" xmlns="http://www.w3.org/2000/svg" xmlns:xlink="http://www.w3.org/1999/xlink" x="0px" y="0px" viewBox="0 0 158.068 160" xml:space="preserve">
  <path d="M1.41714e-08 111.36C1.41714e-08 115.52 3.47602 119.68 8.21609 119.68L39.8322 119.68L39.8322 151.683C39.8322 155.843 43.3082 160.003 48.0483 160.003L75.0803 160.003L75.0803 84.0006L-0.0004 84.0006L1.41714e-08 111.36ZM100.214 0C67.1774 0 40.7844 26.559 40.7844 59.355L40.7844 71.999L73.9726 71.999L73.9726 59.355C73.9726 45.119 85.513 33.6 100.213 33.6C114.753 33.6 124.872 43.836 124.872 59.035C124.872 74.079 113.964 85.118 99.4165 85.118L86.9321 85.118L86.9321 118.709L99.4165 118.709C131.829 118.709 158.07 91.998 158.07 59.03C158.07 24.799 133.57-0.001 100.213-0.001"/>
</svg>
